ok_symbol coordinate motion generated from LLM joint_angles
version=1
nRows=34
nColumns=29
inDegrees=yes
endheader
time	elbow_flexion	pro_sup	rotaxis_auxprfem_r3	deviation	auxprrud_auxdrfem_r3	auxdrfem_auxdrrud_r1	MCP2_lateral	MCP2_flex	PIP_flex	DIP_flex	MCP2M_lateral	MCP2M_flex	MPIP_flex	MDIP_flex	RCP2M_lateral	RCP2M_flex	RPIP_flex	RDIP_flex	LCP2M_lateral	LCP2M_flex	LPIP_flex	LDIP_flex	thumb_abd	thumb_flex	TCP2M_lateral	TCP2M_flex	TCP2M2_flex	flexion
0.000000	0.000000	0.000000	0.000000	0.000000	0.000000	0.000000	0.000000	0.000000	0.000000	0.000000	0.000000	0.000000	0.000000	0.000000	0.000000	0.000000	0.000000	0.000000	0.000000	0.000000	0.000000	0.000000	0.000000	0.000000	0.000000	0.000000	0.000000	0.000000
0.006667	0.000000	0.000000	0.000000	0.000000	0.000000	0.000000	0.000000	0.942409	0.942409	0.942409	0.000000	0.000000	0.000000	0.000000	0.000000	0.000000	0.000000	0.000000	0.000000	0.000000	0.000000	0.000000	0.000000	0.942409	0.000000	0.209424	0.209424	0.000000
0.013333	0.000000	0.000000	0.000000	0.000000	0.000000	0.000000	0.000000	1.884404	1.884404	1.884404	0.000000	0.000000	0.000000	0.000000	0.000000	0.000000	0.000000	0.000000	0.000000	0.000000	0.000000	0.000000	0.000000	1.884404	0.000000	0.418757	0.418757	0.000000
0.020000	0.000000	0.000000	0.000000	0.000000	0.000000	0.000000	0.000000	2.825573	2.825573	2.825573	0.000000	0.000000	0.000000	0.000000	0.000000	0.000000	0.000000	0.000000	0.000000	0.000000	0.000000	0.000000	0.000000	2.825573	0.000000	0.627905	0.627905	0.000000
0.026667	0.000000	0.000000	0.000000	0.000000	0.000000	0.000000	0.000000	3.765503	3.765503	3.765503	0.000000	0.000000	0.000000	0.000000	0.000000	0.000000	0.000000	0.000000	0.000000	0.000000	0.000000	0.000000	0.000000	3.765503	0.000000	0.836778	0.836778	0.000000
0.033333	0.000000	0.000000	0.000000	0.000000	0.000000	0.000000	0.000000	4.703781	4.703781	4.703781	0.000000	0.000000	0.000000	0.000000	0.000000	0.000000	0.000000	0.000000	0.000000	0.000000	0.000000	0.000000	0.000000	4.703781	0.000000	1.045285	1.045285	0.000000
0.040000	0.000000	0.000000	0.000000	0.000000	0.000000	0.000000	0.000000	5.639996	5.639996	5.639996	0.000000	0.000000	0.000000	0.000000	0.000000	0.000000	0.000000	0.000000	0.000000	0.000000	0.000000	0.000000	0.000000	5.639996	0.000000	1.253332	1.253332	0.000000
0.046667	0.000000	0.000000	0.000000	0.000000	0.000000	0.000000	0.000000	6.573736	6.573736	6.573736	0.000000	0.000000	0.000000	0.000000	0.000000	0.000000	0.000000	0.000000	0.000000	0.000000	0.000000	0.000000	0.000000	6.573736	0.000000	1.460830	1.460830	0.000000
0.053333	0.000000	0.000000	0.000000	0.000000	0.000000	0.000000	0.000000	7.504594	7.504594	7.504594	0.000000	0.000000	0.000000	0.000000	0.000000	0.000000	0.000000	0.000000	0.000000	0.000000	0.000000	0.000000	0.000000	7.504594	0.000000	1.667687	1.667687	0.000000
0.060000	0.000000	0.000000	0.000000	0.000000	0.000000	0.000000	0.000000	8.432159	8.432159	8.432159	0.000000	0.000000	0.000000	0.000000	0.000000	0.000000	0.000000	0.000000	0.000000	0.000000	0.000000	0.000000	0.000000	8.432159	0.000000	1.873813	1.873813	0.000000
0.066667	0.000000	0.000000	0.000000	0.000000	0.000000	0.000000	0.000000	9.356026	9.356026	9.356026	0.000000	0.000000	0.000000	0.000000	0.000000	0.000000	0.000000	0.000000	0.000000	0.000000	0.000000	0.000000	0.000000	9.356026	0.000000	2.079117	2.079117	0.000000
0.073333	0.000000	0.000000	0.000000	0.000000	0.000000	0.000000	0.000000	10.275789	10.275789	10.275789	0.000000	0.000000	0.000000	0.000000	0.000000	0.000000	0.000000	0.000000	0.000000	0.000000	0.000000	0.000000	0.000000	10.275789	0.000000	2.283509	2.283509	0.000000
0.080000	0.000000	0.000000	0.000000	0.000000	0.000000	0.000000	0.000000	11.191045	11.191045	11.191045	0.000000	0.000000	0.000000	0.000000	0.000000	0.000000	0.000000	0.000000	0.000000	0.000000	0.000000	0.000000	0.000000	11.191045	0.000000	2.486899	2.486899	0.000000
0.086667	0.000000	0.000000	0.000000	0.000000	0.000000	0.000000	0.000000	12.101392	12.101392	12.101392	0.000000	0.000000	0.000000	0.000000	0.000000	0.000000	0.000000	0.000000	0.000000	0.000000	0.000000	0.000000	0.000000	12.101392	0.000000	2.689198	2.689198	0.000000
0.093333	0.000000	0.000000	0.000000	0.000000	0.000000	0.000000	0.000000	13.006431	13.006431	13.006431	0.000000	0.000000	0.000000	0.000000	0.000000	0.000000	0.000000	0.000000	0.000000	0.000000	0.000000	0.000000	0.000000	13.006431	0.000000	2.890318	2.890318	0.000000
0.100000	0.000000	0.000000	0.000000	0.000000	0.000000	0.000000	0.000000	13.905765	13.905765	13.905765	0.000000	0.000000	0.000000	0.000000	0.000000	0.000000	0.000000	0.000000	0.000000	0.000000	0.000000	0.000000	0.000000	13.905765	0.000000	3.090170	3.090170	0.000000
0.106667	0.000000	0.000000	0.000000	0.000000	0.000000	0.000000	0.000000	14.798999	14.798999	14.798999	0.000000	0.000000	0.000000	0.000000	0.000000	0.000000	0.000000	0.000000	0.000000	0.000000	0.000000	0.000000	0.000000	14.798999	0.000000	3.288666	3.288666	0.000000
0.113333	0.000000	0.000000	0.000000	0.000000	0.000000	0.000000	0.000000	15.685742	15.685742	15.685742	0.000000	0.000000	0.000000	0.000000	0.000000	0.000000	0.000000	0.000000	0.000000	0.000000	0.000000	0.000000	0.000000	15.685742	0.000000	3.485720	3.485720	0.000000
0.120000	0.000000	0.000000	0.000000	0.000000	0.000000	0.000000	0.000000	16.565605	16.565605	16.565605	0.000000	0.000000	0.000000	0.000000	0.000000	0.000000	0.000000	0.000000	0.000000	0.000000	0.000000	0.000000	0.000000	16.565605	0.000000	3.681246	3.681246	0.000000
0.126667	0.000000	0.000000	0.000000	0.000000	0.000000	0.000000	0.000000	17.438201	17.438201	17.438201	0.000000	0.000000	0.000000	0.000000	0.000000	0.000000	0.000000	0.000000	0.000000	0.000000	0.000000	0.000000	0.000000	17.438201	0.000000	3.875156	3.875156	0.000000
0.133333	0.000000	0.000000	0.000000	0.000000	0.000000	0.000000	0.000000	18.303149	18.303149	18.303149	0.000000	0.000000	0.000000	0.000000	0.000000	0.000000	0.000000	0.000000	0.000000	0.000000	0.000000	0.000000	0.000000	18.303149	0.000000	4.067366	4.067366	0.000000
0.140000	0.000000	0.000000	0.000000	0.000000	0.000000	0.000000	0.000000	19.160068	19.160068	19.160068	0.000000	0.000000	0.000000	0.000000	0.000000	0.000000	0.000000	0.000000	0.000000	0.000000	0.000000	0.000000	0.000000	19.160068	0.000000	4.257793	4.257793	0.000000
0.146667	0.000000	0.000000	0.000000	0.000000	0.000000	0.000000	0.000000	20.008583	20.008583	20.008583	0.000000	0.000000	0.000000	0.000000	0.000000	0.000000	0.000000	0.000000	0.000000	0.000000	0.000000	0.000000	0.000000	20.008583	0.000000	4.446352	4.446352	0.000000
0.153333	0.000000	0.000000	0.000000	0.000000	0.000000	0.000000	0.000000	20.848322	20.848322	20.848322	0.000000	0.000000	0.000000	0.000000	0.000000	0.000000	0.000000	0.000000	0.000000	0.000000	0.000000	0.000000	0.000000	20.848322	0.000000	4.632960	4.632960	0.000000
0.160000	0.000000	0.000000	0.000000	0.000000	0.000000	0.000000	0.000000	21.678915	21.678915	21.678915	0.000000	0.000000	0.000000	0.000000	0.000000	0.000000	0.000000	0.000000	0.000000	0.000000	0.000000	0.000000	0.000000	21.678915	0.000000	4.817537	4.817537	0.000000
0.166667	0.000000	0.000000	0.000000	0.000000	0.000000	0.000000	0.000000	22.500000	22.500000	22.500000	0.000000	0.000000	0.000000	0.000000	0.000000	0.000000	0.000000	0.000000	0.000000	0.000000	0.000000	0.000000	0.000000	22.500000	0.000000	5.000000	5.000000	0.000000
0.173333	0.000000	0.000000	0.000000	0.000000	0.000000	0.000000	0.000000	23.311215	23.311215	23.311215	0.000000	0.000000	0.000000	0.000000	0.000000	0.000000	0.000000	0.000000	0.000000	0.000000	0.000000	0.000000	0.000000	23.311215	0.000000	5.180270	5.180270	0.000000
0.180000	0.000000	0.000000	0.000000	0.000000	0.000000	0.000000	0.000000	24.112206	24.112206	24.112206	0.000000	0.000000	0.000000	0.000000	0.000000	0.000000	0.000000	0.000000	0.000000	0.000000	0.000000	0.000000	0.000000	24.112206	0.000000	5.358268	5.358268	0.000000
0.186667	0.000000	0.000000	0.000000	0.000000	0.000000	0.000000	0.000000	24.902620	24.902620	24.902620	0.000000	0.000000	0.000000	0.000000	0.000000	0.000000	0.000000	0.000000	0.000000	0.000000	0.000000	0.000000	0.000000	24.902620	0.000000	5.533915	5.533915	0.000000
0.193333	0.000000	0.000000	0.000000	0.000000	0.000000	0.000000	0.000000	25.682111	25.682111	25.682111	0.000000	0.000000	0.000000	0.000000	0.000000	0.000000	0.000000	0.000000	0.000000	0.000000	0.000000	0.000000	0.000000	25.682111	0.000000	5.707136	5.707136	0.000000
0.200000	0.000000	0.000000	0.000000	0.000000	0.000000	0.000000	0.000000	26.450336	26.450336	26.450336	0.000000	0.000000	0.000000	0.000000	0.000000	0.000000	0.000000	0.000000	0.000000	0.000000	0.000000	0.000000	0.000000	26.450336	0.000000	5.877853	5.877853	0.000000
0.206667	0.000000	0.000000	0.000000	0.000000	0.000000	0.000000	0.000000	27.206960	27.206960	27.206960	0.000000	0.000000	0.000000	0.000000	0.000000	0.000000	0.000000	0.000000	0.000000	0.000000	0.000000	0.000000	0.000000	27.206960	0.000000	6.045991	6.045991	0.000000
0.213333	0.000000	0.000000	0.000000	0.000000	0.000000	0.000000	0.000000	27.951650	27.951650	27.951650	0.000000	0.000000	0.000000	0.000000	0.000000	0.000000	0.000000	0.000000	0.000000	0.000000	0.000000	0.000000	0.000000	27.951650	0.000000	6.211478	6.211478	0.000000
0.220000	0.000000	0.000000	0.000000	0.000000	0.000000	0.000000	0.000000	28.684080	28.684080	28.684080	0.000000	0.000000	0.000000	0.000000	0.000000	0.000000	0.000000	0.000000	0.000000	0.000000	0.000000	0.000000	0.000000	28.684080	0.000000	6.374240	6.374240	0.000000
